<svg width="52" height="52" viewBox="0 0 52 52" fill="none" xmlns="http://www.w3.org/2000/svg">
<circle cx="26" cy="26" r="26" fill="#D9D9D9"/>
<path fill-rule="evenodd" clip-rule="evenodd" d="M28.5 19.5C28.5 17.84 27.16 16.5 25.5 16.5C23.84 16.5 22.5 17.84 22.5 19.5V27C22.5 31 28.5 31 28.5 27V19.5ZM30 19.5V27C30 29.48 27.98 31.5 25.5 31.5C23.02 31.5 21 29.48 21 27V19.5C21 13.5 30 13.5 30 19.5V19.5ZM33 27C33 28.99 32.21 30.9 30.81 32.31C29.58 33.53 27.97 34.29 26.25 34.46V36.75C26.25 37.16 25.91 37.5 25.5 37.5C25.09 37.5 24.75 37.16 24.75 36.75V34.46C20.96 34.09 18 30.89 18 27C18 26 19.5 26 19.5 27C19.5 30.31 22.19 33 25.5 33C28.81 33 31.5 30.31 31.5 27C31.5 26 33 26 33 27V27Z" fill="#363636"/>
<path d="M17.0004 36.2479L34.6328 16" stroke="#363636" stroke-linecap="round" stroke-linejoin="round"/>
</svg>
