<svg width="20" height="20" viewBox="0 0 20 20" fill="none" xmlns="http://www.w3.org/2000/svg">
<path d="M16.4289 2.77129H15.986V1.42843C15.986 1.23119 15.8261 1.07129 15.6288 1.07129H14.1074C13.9102 1.07129 13.7503 1.23119 13.7503 1.42843V2.77129H11.8503C11.653 2.77129 11.4931 2.93119 11.4931 3.12843C11.4969 3.32408 11.6546 3.48177 11.8503 3.48557H13.7503V4.79986C13.7503 4.9971 13.9102 5.157 14.1074 5.157H15.6288C15.8261 5.157 15.986 4.9971 15.986 4.79986V3.48557H16.4289C17.8096 3.48557 18.9289 4.60486 18.9289 5.98557V7.49986H1.07171V5.98557C1.07171 4.60486 2.191 3.48557 3.57171 3.48557H4.02171V4.79986C4.02171 4.9971 4.18161 5.157 4.37885 5.157H5.89314C6.09038 5.157 6.25028 4.9971 6.25028 4.79986V1.42843C6.25028 1.23119 6.09038 1.07129 5.89314 1.07129H4.37885C4.18161 1.07129 4.02171 1.23119 4.02171 1.42843V2.77129H3.57171C1.79651 2.77129 0.357422 4.21037 0.357422 5.98557V15.7141C0.36135 17.4877 1.79814 18.9245 3.57171 18.9284H16.4289C18.2024 18.9245 19.6392 17.4877 19.6431 15.7141V5.98557C19.6431 4.21037 18.2041 2.77129 16.4289 2.77129ZM15.2717 4.44272H14.4646V1.807H15.2717V4.44272ZM4.73599 1.807H5.53599V4.44272H4.73599V1.807ZM18.9289 15.7141C18.9289 17.0949 17.8096 18.2141 16.4289 18.2141H3.57171C2.191 18.2141 1.07171 17.0949 1.07171 15.7141V8.21415H18.9289V15.7141Z" fill="white"/>
<path d="M6.96484 3.48557H8.88627V4.79986C8.88627 4.9971 9.04617 5.157 9.24341 5.157H10.7577C10.9549 5.157 11.1148 4.9971 11.1148 4.79986V1.42843C11.1148 1.23119 10.9549 1.07129 10.7577 1.07129H9.24341C9.04617 1.07129 8.88627 1.23119 8.88627 1.42843V2.77129H6.96484C6.7676 2.77129 6.6077 2.93119 6.6077 3.12843C6.6077 3.32568 6.7676 3.48557 6.96484 3.48557ZM9.60056 1.807H10.4006V4.44272H9.60056V1.807ZM3.57199 12.4999H5.27199C5.46923 12.4999 5.62913 12.34 5.62913 12.1427V10.4499C5.62913 10.2526 5.46923 10.0927 5.27199 10.0927H3.57199C3.37474 10.0927 3.21484 10.2526 3.21484 10.4499V12.1427C3.21484 12.34 3.37474 12.4999 3.57199 12.4999ZM3.92913 10.807H4.91484V11.7856H3.92913V10.807ZM7.29342 12.4999H8.98627C9.18352 12.4999 9.34342 12.34 9.34342 12.1427V10.4499C9.34342 10.2526 9.18352 10.0927 8.98627 10.0927H7.29342C7.09617 10.0927 6.93627 10.2526 6.93627 10.4499V12.1427C6.93627 12.34 7.09617 12.4999 7.29342 12.4999ZM7.65056 10.807H8.62913V11.7856H7.65056V10.807ZM14.7363 12.4999H16.4291C16.6264 12.4999 16.7863 12.34 16.7863 12.1427V10.4499C16.7863 10.2526 16.6264 10.0927 16.4291 10.0927H14.7363C14.539 10.0927 14.3791 10.2526 14.3791 10.4499V12.1427C14.3791 12.34 14.539 12.4999 14.7363 12.4999ZM15.0934 10.807H16.072V11.7856H15.0934V10.807ZM11.0148 12.4999H12.7077C12.9049 12.4999 13.0648 12.34 13.0648 12.1427V10.4499C13.0648 10.2526 12.9049 10.0927 12.7077 10.0927H11.0148C10.8176 10.0927 10.6577 10.2526 10.6577 10.4499V12.1427C10.6577 12.34 10.8176 12.4999 11.0148 12.4999ZM11.372 10.807H12.3506V11.7856H11.372V10.807ZM3.57199 16.3427H5.27199C5.46764 16.3389 5.62533 16.1812 5.62913 15.9856V14.2856C5.62913 14.0883 5.46923 13.9284 5.27199 13.9284H3.57199C3.37474 13.9284 3.21484 14.0883 3.21484 14.2856V15.9856C3.21484 16.1828 3.37474 16.3427 3.57199 16.3427ZM3.92913 14.6427H4.91484V15.6284H3.92913V14.6427ZM7.29342 16.3427H8.98627C9.18352 16.3427 9.34342 16.1828 9.34342 15.9856V14.2856C9.34342 14.0883 9.18352 13.9284 8.98627 13.9284H7.29342C7.09617 13.9284 6.93627 14.0883 6.93627 14.2856V15.9856C6.93627 16.1828 7.09617 16.3427 7.29342 16.3427ZM7.65056 14.6427H8.62913V15.6284H7.65056V14.6427ZM14.7363 16.3427H16.4291C16.6264 16.3427 16.7863 16.1828 16.7863 15.9856V14.2856C16.7863 14.0883 16.6264 13.9284 16.4291 13.9284H14.7363C14.539 13.9284 14.3791 14.0883 14.3791 14.2856V15.9856C14.3791 16.1828 14.539 16.3427 14.7363 16.3427ZM15.0934 14.6427H16.072V15.6284H15.0934V14.6427ZM11.0148 16.3427H12.7077C12.9049 16.3427 13.0648 16.1828 13.0648 15.9856V14.2856C13.0648 14.0883 12.9049 13.9284 12.7077 13.9284H11.0148C10.8176 13.9284 10.6577 14.0883 10.6577 14.2856V15.9856C10.6577 16.1828 10.8176 16.3427 11.0148 16.3427ZM11.372 14.6427H12.3506V15.6284H11.372V14.6427Z" fill="white"/>
</svg>
