<svg width="65" height="60" viewBox="0 0 65 60" fill="none" xmlns="http://www.w3.org/2000/svg">
<path d="M51.1254 16.7562C48.8843 5.86503 38.2384 -1.14717 27.3473 1.09393C18.0214 3.01302 11.315 11.2026 11.2722 20.7237C11.2722 21.1773 11.291 21.6418 11.3312 22.133C4.69666 22.8353 -0.112448 28.783 0.589828 35.4175C1.24076 41.567 6.43051 46.232 12.6143 46.226H14.0237C13.9915 45.7804 13.9566 45.3375 13.9566 44.8837C13.9566 35.247 21.7687 27.4348 31.4056 27.4348C41.0424 27.4348 48.8544 35.247 48.8544 44.8837C48.8544 45.3374 48.8195 45.7803 48.7873 46.226H50.1967C58.3419 46.2483 64.963 39.6633 64.9852 31.5179C65.0066 23.7023 58.9271 17.227 51.1254 16.7562Z" fill="#BBDEFB"/>
<path d="M31.4058 59.648C39.5599 59.648 46.1702 53.0377 46.1702 44.8836C46.1702 36.7294 39.5599 30.1191 31.4058 30.1191C23.2516 30.1191 16.6414 36.7294 16.6414 44.8836C16.6414 53.0377 23.2516 59.648 31.4058 59.648Z" fill="#4CAF50"/>
<path d="M31.407 54.2795C30.6657 54.2795 30.0647 53.6785 30.0647 52.9372V36.8305C30.0647 36.0893 30.6657 35.4883 31.407 35.4883C32.1482 35.4883 32.7492 36.0893 32.7492 36.8305V52.9372C32.7491 53.6785 32.1482 54.2795 31.407 54.2795Z" fill="#FAFAFA"/>
<path d="M36.775 43.5421C36.4188 43.5427 36.0769 43.4018 35.8247 43.1501L31.4061 38.7288L26.9874 43.1501C26.4543 43.6651 25.6045 43.6503 25.0895 43.1171C24.587 42.5969 24.587 41.7723 25.0895 41.2521L30.4584 35.8832C30.9825 35.3592 31.8321 35.3592 32.3564 35.8832L37.7253 41.2521C38.2486 41.7771 38.2474 42.627 37.7223 43.1503C37.4709 43.4011 37.1302 43.5419 36.775 43.5421Z" fill="#FAFAFA"/>
</svg>
