<svg width="20" height="20" viewBox="0 0 20 20" fill="none" xmlns="http://www.w3.org/2000/svg">
<g clip-path="url(#clip0_1697_7783)">
<path d="M20.0003 15L18.2503 6.625C18.0003 5.75 17.1253 5 16.1253 5H13.7503V3.5C13.7503 2.25 12.7503 1.25 11.5003 1.25H8.50034C7.25034 1.25 6.25034 2.25 6.25034 3.5V5H3.87534C2.87534 5 2.00034 5.75 1.75034 6.625L0.000338502 15C-0.249662 16.25 0.750339 17.5 2.12534 17.5H17.7503C19.2503 17.5 20.2503 16.25 20.0003 15ZM7.50034 3.5C7.50034 3 8.00034 2.5 8.50034 2.5H11.5003C12.0003 2.5 12.5003 3 12.5003 3.5V5H7.50034V3.5ZM13.7503 12.5H11.2503V15H8.75034V12.5H6.25034V10H8.75034V7.5H11.2503V10H13.7503V12.5Z" fill="#242424"/>
</g>
<defs>
<clipPath id="clip0_1697_7783">
<rect width="20" height="20" fill="white"/>
</clipPath>
</defs>
</svg>
