<svg width="71" height="71" viewBox="0 0 71 71" fill="none" xmlns="http://www.w3.org/2000/svg">
<circle cx="35.5" cy="35.5" r="35.5" fill="#F33060"/>
<path d="M39.9391 33.554C36.9635 32.5256 33.728 32.5314 30.7561 33.5706C30.5392 33.646 30.3455 33.7761 30.1936 33.9484C30.0418 34.1207 29.9371 34.3293 29.8895 34.5539L28.9229 39.4704C28.8772 39.6884 28.7789 39.892 28.6366 40.0634C28.4943 40.2348 28.3122 40.3687 28.1062 40.4537L20.2232 43.6035C19.9551 43.7147 19.6577 43.734 19.3774 43.6587C19.0971 43.5833 18.8496 43.4175 18.6733 43.1869C17.4824 41.6482 16.8932 39.7282 17.0159 37.7863C17.1386 35.8445 17.9649 34.0139 19.3399 32.6373C23.5932 28.3873 29.3599 26 35.3726 26C41.3853 26 47.152 28.3873 51.4053 32.6373C52.7804 34.0139 53.6066 35.8445 53.7293 37.7863C53.852 39.7282 53.2628 41.6482 52.0719 43.1869C51.8956 43.4175 51.6481 43.5833 51.3678 43.6587C51.0875 43.734 50.7901 43.7147 50.522 43.6035L42.639 40.4537C42.435 40.3703 42.2542 40.2389 42.112 40.0706C41.9699 39.9023 41.8705 39.7021 41.8224 39.487L40.7891 34.5372C40.7446 34.3138 40.6429 34.1058 40.4939 33.9334C40.3449 33.7611 40.1537 33.6303 39.9391 33.554V33.554Z" stroke="white" stroke-width="1.8" stroke-linecap="round" stroke-linejoin="round"/>
</svg>
