<svg width="143" height="55" viewBox="0 0 143 55" fill="none" xmlns="http://www.w3.org/2000/svg">
<path d="M11.615 36.63C9.98167 36.63 8.57 36.3617 7.38 35.825C6.21333 35.2883 5.25667 34.5883 4.51 33.725C3.76333 32.8383 3.20333 31.8583 2.83 30.785C2.48 29.7117 2.305 28.6383 2.305 27.565C2.305 25.815 2.70167 24.2633 3.495 22.91C4.28833 21.5567 5.385 20.495 6.785 19.725C8.185 18.9317 9.795 18.535 11.615 18.535C12.9683 18.535 14.135 18.7567 15.115 19.2C16.1183 19.62 16.935 20.18 17.565 20.88C18.2183 21.5567 18.6967 22.2917 19 23.085C19.3267 23.8783 19.49 24.6367 19.49 25.36C19.49 26.6433 19.175 27.6 18.545 28.23C17.9383 28.8367 17.1567 29.14 16.2 29.14H7.87C7.91667 29.7467 8.12667 30.26 8.5 30.68C8.89667 31.1 9.38667 31.4267 9.97 31.66C10.5533 31.8933 11.1717 32.01 11.825 32.01C12.385 32.01 12.875 31.9867 13.295 31.94C13.715 31.87 14.0767 31.7883 14.38 31.695C14.6833 31.5783 14.9633 31.4733 15.22 31.38C15.4767 31.2633 15.6983 31.17 15.885 31.1C16.095 31.03 16.2933 30.9833 16.48 30.96C16.83 30.9367 17.145 31.0417 17.425 31.275C17.7283 31.485 17.9967 31.8117 18.23 32.255C18.3933 32.5117 18.4983 32.7567 18.545 32.99C18.615 33.2233 18.65 33.4567 18.65 33.69C18.65 34.25 18.3583 34.7517 17.775 35.195C17.215 35.6383 16.41 35.9883 15.36 36.245C14.3333 36.5017 13.085 36.63 11.615 36.63ZM7.87 26.27H13.4C13.7733 26.27 14.0417 26.2117 14.205 26.095C14.3917 25.955 14.485 25.6983 14.485 25.325C14.485 24.905 14.3567 24.5433 14.1 24.24C13.8433 23.9133 13.4933 23.6683 13.05 23.505C12.63 23.3183 12.14 23.225 11.58 23.225C10.8567 23.225 10.215 23.365 9.655 23.645C9.095 23.925 8.65167 24.2983 8.325 24.765C8.02167 25.2317 7.87 25.7333 7.87 26.27ZM24.3588 36.28C23.4955 36.28 22.8772 36.1633 22.5038 35.93C22.1538 35.6733 21.9322 35.3467 21.8388 34.95C21.7688 34.53 21.7338 34.0983 21.7338 33.655V21.335C21.7338 20.8917 21.7805 20.4833 21.8738 20.11C21.9672 19.7133 22.1888 19.3983 22.5388 19.165C22.9122 18.9317 23.5305 18.815 24.3938 18.815C25.1405 18.815 25.6888 18.92 26.0388 19.13C26.3888 19.3167 26.6105 19.55 26.7038 19.83C26.8205 20.11 26.8788 20.3783 26.8788 20.635C26.8788 20.8683 26.9022 21.0317 26.9488 21.125L26.7388 21.79C26.7855 21.44 26.9605 21.09 27.2638 20.74C27.5905 20.3667 27.9872 20.04 28.4538 19.76C28.9438 19.4567 29.4572 19.2233 29.9938 19.06C30.5538 18.8967 31.1022 18.815 31.6388 18.815C32.7588 18.815 33.7505 19.025 34.6138 19.445C35.5005 19.8417 36.2472 20.425 36.8538 21.195C37.4605 21.965 37.9155 22.875 38.2188 23.925C38.5455 24.9517 38.7088 26.0833 38.7088 27.32V33.69C38.7088 34.1333 38.6622 34.565 38.5688 34.985C38.4988 35.3817 38.2772 35.6967 37.9038 35.93C37.5538 36.1633 36.9472 36.28 36.0838 36.28C35.1972 36.28 34.5672 36.1633 34.1938 35.93C33.8438 35.6733 33.6222 35.3467 33.5288 34.95C33.4355 34.53 33.3888 34.0983 33.3888 33.655V27.32C33.3888 26.62 33.2722 26.025 33.0388 25.535C32.8055 25.045 32.4555 24.6717 31.9888 24.415C31.5222 24.135 30.9505 23.995 30.2738 23.995C29.5972 23.995 29.0138 24.135 28.5238 24.415C28.0338 24.695 27.6488 25.08 27.3688 25.57C27.1122 26.06 26.9838 26.6433 26.9838 27.32V33.69C26.9838 34.1333 26.9372 34.565 26.8438 34.985C26.7738 35.3817 26.5522 35.6967 26.1788 35.93C25.8288 36.1633 25.2222 36.28 24.3588 36.28ZM43.9405 36.315C43.1005 36.315 42.4938 36.1983 42.1205 35.965C41.7472 35.7083 41.5138 35.3817 41.4205 34.985C41.3505 34.565 41.3155 34.1217 41.3155 33.655V13.495C41.3155 13.0283 41.3622 12.5967 41.4555 12.2C41.5488 11.8033 41.7822 11.4883 42.1555 11.255C42.5288 10.9983 43.1355 10.87 43.9755 10.87C44.8388 10.87 45.4455 10.9983 45.7955 11.255C46.1688 11.5117 46.3905 11.8383 46.4605 12.235C46.5538 12.6317 46.6005 13.0633 46.6005 13.53V20.67C47.0205 20.2267 47.5572 19.8067 48.2105 19.41C48.8872 19.0133 49.6805 18.815 50.5905 18.815C52.0372 18.815 53.3322 19.1883 54.4755 19.935C55.6422 20.6583 56.5638 21.6617 57.2405 22.945C57.9405 24.2283 58.2905 25.6983 58.2905 27.355V33.69C58.2905 34.1567 58.2438 34.5883 58.1505 34.985C58.0572 35.3817 57.8355 35.7083 57.4855 35.965C57.1355 36.1983 56.5172 36.315 55.6305 36.315C54.8138 36.315 54.2072 36.1983 53.8105 35.965C53.4372 35.7083 53.2038 35.3817 53.1105 34.985C53.0405 34.565 53.0055 34.1217 53.0055 33.655V27.32C53.0055 26.6433 52.8888 26.0717 52.6555 25.605C52.4222 25.115 52.0722 24.73 51.6055 24.45C51.1622 24.17 50.6138 24.03 49.9605 24.03C49.0972 24.03 48.3388 24.2983 47.6855 24.835C47.0555 25.3483 46.6938 25.9783 46.6005 26.725V33.69C46.6005 34.1567 46.5538 34.5883 46.4605 34.985C46.3672 35.3817 46.1338 35.7083 45.7605 35.965C45.4105 36.1983 44.8038 36.315 43.9405 36.315ZM69.5154 36.63C67.8821 36.63 66.4704 36.3617 65.2804 35.825C64.1137 35.2883 63.1571 34.5883 62.4104 33.725C61.6637 32.8383 61.1037 31.8583 60.7304 30.785C60.3804 29.7117 60.2054 28.6383 60.2054 27.565C60.2054 25.815 60.6021 24.2633 61.3954 22.91C62.1887 21.5567 63.2854 20.495 64.6854 19.725C66.0854 18.9317 67.6954 18.535 69.5154 18.535C70.8687 18.535 72.0354 18.7567 73.0154 19.2C74.0187 19.62 74.8354 20.18 75.4654 20.88C76.1187 21.5567 76.5971 22.2917 76.9004 23.085C77.2271 23.8783 77.3904 24.6367 77.3904 25.36C77.3904 26.6433 77.0754 27.6 76.4454 28.23C75.8387 28.8367 75.0571 29.14 74.1004 29.14H65.7704C65.8171 29.7467 66.0271 30.26 66.4004 30.68C66.7971 31.1 67.2871 31.4267 67.8704 31.66C68.4537 31.8933 69.0721 32.01 69.7254 32.01C70.2854 32.01 70.7754 31.9867 71.1954 31.94C71.6154 31.87 71.9771 31.7883 72.2804 31.695C72.5837 31.5783 72.8637 31.4733 73.1204 31.38C73.3771 31.2633 73.5987 31.17 73.7854 31.1C73.9954 31.03 74.1937 30.9833 74.3804 30.96C74.7304 30.9367 75.0454 31.0417 75.3254 31.275C75.6287 31.485 75.8971 31.8117 76.1304 32.255C76.2937 32.5117 76.3987 32.7567 76.4454 32.99C76.5154 33.2233 76.5504 33.4567 76.5504 33.69C76.5504 34.25 76.2587 34.7517 75.6754 35.195C75.1154 35.6383 74.3104 35.9883 73.2604 36.245C72.2337 36.5017 70.9854 36.63 69.5154 36.63ZM65.7704 26.27H71.3004C71.6737 26.27 71.9421 26.2117 72.1054 26.095C72.2921 25.955 72.3854 25.6983 72.3854 25.325C72.3854 24.905 72.2571 24.5433 72.0004 24.24C71.7437 23.9133 71.3937 23.6683 70.9504 23.505C70.5304 23.3183 70.0404 23.225 69.4804 23.225C68.7571 23.225 68.1154 23.365 67.5554 23.645C66.9954 23.925 66.5521 24.2983 66.2254 24.765C65.9221 25.2317 65.7704 25.7333 65.7704 26.27ZM93.9142 36.28C93.0509 36.28 92.4092 36.1283 91.9892 35.825C91.5926 35.5217 91.3942 35.1483 91.3942 34.705L91.7442 34.11C91.6042 34.3433 91.3359 34.635 90.9392 34.985C90.5426 35.3117 90.0292 35.615 89.3992 35.895C88.7692 36.1517 87.9876 36.28 87.0542 36.28C85.9809 36.28 84.9542 36.0467 83.9742 35.58C83.0176 35.1133 82.1659 34.4717 81.4192 33.655C80.6726 32.815 80.0776 31.87 79.6342 30.82C79.2142 29.77 79.0042 28.6617 79.0042 27.495C79.0042 26.3517 79.2142 25.2667 79.6342 24.24C80.0776 23.19 80.6726 22.2683 81.4192 21.475C82.1892 20.6583 83.0526 20.0167 84.0092 19.55C84.9659 19.0833 85.9809 18.85 87.0542 18.85C87.9176 18.85 88.6526 18.9783 89.2592 19.235C89.8659 19.4683 90.3676 19.7483 90.7642 20.075C91.1842 20.4017 91.4992 20.7167 91.7092 21.02L91.4292 20.53C91.4059 19.97 91.5926 19.55 91.9892 19.27C92.4092 18.9667 93.0626 18.815 93.9492 18.815C94.7892 18.815 95.3842 18.9433 95.7342 19.2C96.1076 19.4567 96.3292 19.795 96.3992 20.215C96.4926 20.635 96.5392 21.0783 96.5392 21.545V33.62C96.5392 34.0633 96.4926 34.495 96.3992 34.915C96.3292 35.335 96.1076 35.6733 95.7342 35.93C95.3842 36.1633 94.7776 36.28 93.9142 36.28ZM87.8242 31.065C88.4309 31.065 88.9792 30.9133 89.4692 30.61C89.9826 30.2833 90.3792 29.8517 90.6592 29.315C90.9626 28.7783 91.1142 28.1833 91.1142 27.53C91.1142 26.8533 90.9626 26.2583 90.6592 25.745C90.3559 25.2083 89.9476 24.7883 89.4342 24.485C88.9209 24.1583 88.3609 23.995 87.7542 23.995C87.0776 23.995 86.4709 24.1583 85.9342 24.485C85.4209 24.8117 85.0009 25.2433 84.6742 25.78C84.3709 26.3167 84.2192 26.9233 84.2192 27.6C84.2192 28.23 84.3709 28.8133 84.6742 29.35C85.0009 29.8633 85.4326 30.2833 85.9692 30.61C86.5292 30.9133 87.1476 31.065 87.8242 31.065ZM106.076 36.315C105.119 36.315 104.268 36.2567 103.521 36.14C102.798 36.0467 102.168 35.86 101.631 35.58C101.118 35.3 100.698 34.915 100.371 34.425C100.044 33.935 99.7992 33.305 99.6359 32.535C99.4959 31.7417 99.4259 30.7733 99.4259 29.63V13.46C99.4259 12.9933 99.4609 12.5617 99.5309 12.165C99.6242 11.7683 99.8576 11.4417 100.231 11.185C100.604 10.9283 101.211 10.8 102.051 10.8C102.891 10.8 103.486 10.9283 103.836 11.185C104.209 11.4417 104.443 11.7683 104.536 12.165C104.629 12.5617 104.676 12.9933 104.676 13.46V29.385C104.676 29.7583 104.688 30.0733 104.711 30.33C104.758 30.5633 104.828 30.75 104.921 30.89C105.038 31.03 105.189 31.1233 105.376 31.17C105.563 31.2167 105.808 31.24 106.111 31.24C106.391 31.24 106.671 31.275 106.951 31.345C107.254 31.415 107.511 31.625 107.721 31.975C107.931 32.325 108.036 32.9083 108.036 33.725C108.036 34.565 107.931 35.1717 107.721 35.545C107.511 35.9183 107.254 36.14 106.951 36.21C106.671 36.28 106.379 36.315 106.076 36.315ZM117.477 36.315C116.287 36.315 115.26 36.1867 114.397 35.93C113.557 35.6733 112.857 35.2767 112.297 34.74C111.737 34.2033 111.317 33.5267 111.037 32.71C110.78 31.87 110.652 30.8783 110.652 29.735V15.525C110.652 15.0583 110.687 14.6383 110.757 14.265C110.85 13.8917 111.084 13.5883 111.457 13.355C111.83 13.0983 112.437 12.97 113.277 12.97C114.117 12.97 114.724 13.0983 115.097 13.355C115.47 13.6117 115.692 13.9383 115.762 14.335C115.855 14.7317 115.902 15.1633 115.902 15.63V29.525C115.902 29.8983 115.925 30.2133 115.972 30.47C116.042 30.7033 116.135 30.8783 116.252 30.995C116.369 31.1117 116.532 31.1933 116.742 31.24C116.952 31.2867 117.209 31.31 117.512 31.31C118.025 31.31 118.48 31.3567 118.877 31.45C119.274 31.5433 119.577 31.7533 119.787 32.08C120.02 32.4067 120.137 32.955 120.137 33.725C120.137 34.565 120.009 35.1717 119.752 35.545C119.495 35.9183 119.157 36.14 118.737 36.21C118.34 36.28 117.92 36.315 117.477 36.315ZM109.567 19.095H113.417L118.247 18.955C118.69 18.955 119.11 19.0017 119.507 19.095C119.904 19.165 120.23 19.3867 120.487 19.76C120.744 20.1333 120.872 20.7517 120.872 21.615C120.872 22.4083 120.744 22.9917 120.487 23.365C120.254 23.7383 119.939 23.9833 119.542 24.1C119.145 24.1933 118.714 24.24 118.247 24.24L113.662 24.135H109.427C108.75 24.1117 108.272 23.9133 107.992 23.54C107.735 23.1433 107.607 22.49 107.607 21.58C107.607 20.74 107.77 20.1217 108.097 19.725C108.424 19.305 108.914 19.095 109.567 19.095ZM125.357 36.315C124.517 36.315 123.91 36.1983 123.537 35.965C123.163 35.7083 122.93 35.3817 122.837 34.985C122.767 34.565 122.732 34.1217 122.732 33.655V13.495C122.732 13.0283 122.778 12.5967 122.872 12.2C122.965 11.8033 123.198 11.4883 123.572 11.255C123.945 10.9983 124.552 10.87 125.392 10.87C126.255 10.87 126.862 10.9983 127.212 11.255C127.585 11.5117 127.807 11.8383 127.877 12.235C127.97 12.6317 128.017 13.0633 128.017 13.53V20.67C128.437 20.2267 128.973 19.8067 129.627 19.41C130.303 19.0133 131.097 18.815 132.007 18.815C133.453 18.815 134.748 19.1883 135.892 19.935C137.058 20.6583 137.98 21.6617 138.657 22.945C139.357 24.2283 139.707 25.6983 139.707 27.355V33.69C139.707 34.1567 139.66 34.5883 139.567 34.985C139.473 35.3817 139.252 35.7083 138.902 35.965C138.552 36.1983 137.933 36.315 137.047 36.315C136.23 36.315 135.623 36.1983 135.227 35.965C134.853 35.7083 134.62 35.3817 134.527 34.985C134.457 34.565 134.422 34.1217 134.422 33.655V27.32C134.422 26.6433 134.305 26.0717 134.072 25.605C133.838 25.115 133.488 24.73 133.022 24.45C132.578 24.17 132.03 24.03 131.377 24.03C130.513 24.03 129.755 24.2983 129.102 24.835C128.472 25.3483 128.11 25.9783 128.017 26.725V33.69C128.017 34.1567 127.97 34.5883 127.877 34.985C127.783 35.3817 127.55 35.7083 127.177 35.965C126.827 36.1983 126.22 36.315 125.357 36.315Z" fill="#1B1F19"/>
<path d="M5.372 50.096V51H1.98V45.984H5.3V46.848H2.94V48.032H5.004V48.856H2.94V50.096H5.372ZM12.8654 45.984V51H11.9294L9.55338 47.6V51H8.64937V45.984H9.58537L11.9694 49.464V45.984H12.8654ZM17.3491 51H16.3891V45.984H17.3491V48.016H19.5411V45.984H20.5011V51H19.5411V48.888H17.3491V51ZM24.5714 51H23.5634L25.4834 45.984H26.4754L28.3634 51H27.3554L26.9954 49.976H24.9234L24.5714 51ZM25.9554 46.904C25.8967 47.1067 25.83 47.32 25.7554 47.544C25.686 47.768 25.6194 47.976 25.5554 48.168L25.2034 49.184H26.7154L26.3634 48.168C26.3047 47.9973 26.238 47.8 26.1634 47.576C26.0887 47.3467 26.0194 47.1227 25.9554 46.904ZM35.6547 45.984V51H34.7188L32.3427 47.6V51H31.4387V45.984H32.3747L34.7587 49.464V45.984H35.6547ZM41.2664 50.168C41.4851 50.168 41.7171 50.144 41.9624 50.096C42.2131 50.048 42.4371 49.984 42.6344 49.904V50.76C42.3411 50.8773 42.0771 50.9573 41.8424 51C41.6131 51.048 41.3731 51.072 41.1224 51.072C40.3278 51.072 39.7731 50.8747 39.4584 50.48C39.1438 50.08 38.9864 49.4133 38.9864 48.48C38.9864 47.5893 39.1731 46.9387 39.5464 46.528C39.9198 46.112 40.5198 45.904 41.3464 45.904C41.5918 45.904 41.8104 45.9093 42.0024 45.92C42.1944 45.9307 42.3678 45.9493 42.5224 45.976V46.816C42.3198 46.8 42.1224 46.7893 41.9304 46.784C41.7438 46.7733 41.5491 46.768 41.3464 46.768C40.8078 46.768 40.4424 46.8933 40.2504 47.144C40.0638 47.3947 39.9704 47.84 39.9704 48.48C39.9704 49.12 40.0558 49.5627 40.2264 49.808C40.4024 50.048 40.7491 50.168 41.2664 50.168ZM46.8 45.984V51H45.84V45.984H46.8ZM54.5379 45.984V51H53.6019L51.2259 47.6V51H50.3219V45.984H51.2579L53.6419 49.464V45.984H54.5379ZM61.0776 49.04H59.9896V48.24H61.9736V50.768C61.8242 50.8373 61.5576 50.9067 61.1736 50.976C60.7896 51.04 60.4402 51.072 60.1256 51.072C59.2776 51.072 58.6882 50.8747 58.3576 50.48C58.0322 50.0853 57.8696 49.4213 57.8696 48.488C57.8696 47.5973 58.0616 46.944 58.4456 46.528C58.8349 46.112 59.4482 45.904 60.2856 45.904C60.6002 45.904 60.8802 45.912 61.1256 45.928C61.3762 45.9387 61.5682 45.9573 61.7016 45.984V46.824C61.5096 46.808 61.2882 46.7947 61.0376 46.784C60.7869 46.7733 60.5362 46.768 60.2856 46.768C59.7362 46.768 59.3602 46.8933 59.1576 47.144C58.9602 47.3947 58.8616 47.8427 58.8616 48.488C58.8616 48.7973 58.8776 49.0533 58.9096 49.256C58.9469 49.4587 59.0002 49.624 59.0696 49.752C59.1602 49.912 59.2882 50.0267 59.4536 50.096C59.6242 50.1653 59.8749 50.2 60.2056 50.2C60.3176 50.2 60.4482 50.192 60.5976 50.176C60.7469 50.16 60.9069 50.1387 61.0776 50.112V49.04ZM73.9594 51H72.9994V45.984H73.9594V48.016H76.1514V45.984H77.1114V51H76.1514V48.888H73.9594V51ZM84.0217 50.096V51H80.6297V45.984H83.9497V46.848H81.5897V48.032H83.6537V48.856H81.5897V50.096H84.0217ZM87.8511 51H86.8431L88.7631 45.984H89.7551L91.6431 51H90.6351L90.2751 49.976H88.2031L87.8511 51ZM89.2351 46.904C89.1764 47.1067 89.1097 47.32 89.0351 47.544C88.9657 47.768 88.8991 47.976 88.8351 48.168L88.4831 49.184H89.9951L89.6431 48.168C89.5844 47.9973 89.5177 47.8 89.4431 47.576C89.3684 47.3467 89.2991 47.1227 89.2351 46.904ZM97.8544 50.096V51H94.7184V45.984H95.6784V50.096H97.8544ZM103.895 45.984V46.848H102.375V51H101.415V46.848H99.9026V45.984H103.895ZM108.002 51H107.042V45.984H108.002V48.016H110.194V45.984H111.154V51H110.194V48.888H108.002V51ZM116.76 50.168C116.979 50.168 117.211 50.144 117.456 50.096C117.707 50.048 117.931 49.984 118.128 49.904V50.76C117.835 50.8773 117.571 50.9573 117.336 51C117.107 51.048 116.867 51.072 116.616 51.072C115.821 51.072 115.267 50.8747 114.952 50.48C114.637 50.08 114.48 49.4133 114.48 48.48C114.48 47.5893 114.667 46.9387 115.04 46.528C115.413 46.112 116.013 45.904 116.84 45.904C117.085 45.904 117.304 45.9093 117.496 45.92C117.688 45.9307 117.861 45.9493 118.016 45.976V46.816C117.813 46.8 117.616 46.7893 117.424 46.784C117.237 46.7733 117.043 46.768 116.84 46.768C116.301 46.768 115.936 46.8933 115.744 47.144C115.557 47.3947 115.464 47.84 115.464 48.48C115.464 49.12 115.549 49.5627 115.72 49.808C115.896 50.048 116.243 50.168 116.76 50.168ZM121.885 51H120.877L122.797 45.984H123.789L125.677 51H124.669L124.309 49.976H122.237L121.885 51ZM123.269 46.904C123.211 47.1067 123.144 47.32 123.069 47.544C123 47.768 122.933 47.976 122.869 48.168L122.517 49.184H124.029L123.677 48.168C123.619 47.9973 123.552 47.8 123.477 47.576C123.403 47.3467 123.333 47.1227 123.269 46.904ZM129.713 49.288V51H128.753V45.984H130.521C131.262 45.984 131.79 46.1093 132.105 46.36C132.425 46.6107 132.585 47.0293 132.585 47.616C132.585 48.0373 132.491 48.3787 132.305 48.64C132.123 48.896 131.846 49.0747 131.473 49.176L132.737 51H131.585L130.457 49.288H129.713ZM131.609 47.616C131.609 47.3387 131.526 47.1413 131.361 47.024C131.201 46.9067 130.921 46.848 130.521 46.848H129.713V48.488H130.521C130.921 48.488 131.201 48.4213 131.361 48.288C131.526 48.1547 131.609 47.9307 131.609 47.616ZM139.322 50.096V51H135.93V45.984H139.25V46.848H136.89V48.032H138.954V48.856H136.89V50.096H139.322Z" fill="#358F46"/>
</svg>
