<svg width="40" height="40" viewBox="0 0 40 40" fill="none" xmlns="http://www.w3.org/2000/svg">
<path d="M32.5 23.75H16.25C15.9185 23.75 15.6005 23.8817 15.3661 24.1161C15.1317 24.3505 15 24.6685 15 25V30H5V17.5C5 17.1685 4.8683 16.8505 4.63388 16.6161C4.39946 16.3817 4.08152 16.25 3.75 16.25C3.41848 16.25 3.10054 16.3817 2.86612 16.6161C2.6317 16.8505 2.5 17.1685 2.5 17.5V36.25C2.5 36.5815 2.6317 36.8995 2.86612 37.1339C3.10054 37.3683 3.41848 37.5 3.75 37.5C4.08152 37.5 4.39946 37.3683 4.63388 37.1339C4.8683 36.8995 5 36.5815 5 36.25V32.5H35V36.25C35 36.5815 35.1317 36.8995 35.3661 37.1339C35.6005 37.3683 35.9185 37.5 36.25 37.5C36.5815 37.5 36.8995 37.3683 37.1339 37.1339C37.3683 36.8995 37.5 36.5815 37.5 36.25V28.75C37.4986 27.4243 36.9714 26.1534 36.034 25.216C35.0966 24.2786 33.8257 23.7514 32.5 23.75Z" fill="black"/>
<path d="M10 30C12.0711 30 13.75 28.3211 13.75 26.25C13.75 24.1789 12.0711 22.5 10 22.5C7.92893 22.5 6.25 24.1789 6.25 26.25C6.25 28.3211 7.92893 30 10 30Z" fill="black"/>
<path d="M20 7.5C19.6685 7.5 19.3505 7.6317 19.1161 7.86612C18.8817 8.10054 18.75 8.41848 18.75 8.75V11.25H16.25C15.9185 11.25 15.6005 11.3817 15.3661 11.6161C15.1317 11.8505 15 12.1685 15 12.5C15 12.8315 15.1317 13.1495 15.3661 13.3839C15.6005 13.6183 15.9185 13.75 16.25 13.75H18.75V16.25C18.75 16.5815 18.8817 16.8995 19.1161 17.1339C19.3505 17.3683 19.6685 17.5 20 17.5C20.3315 17.5 20.6495 17.3683 20.8839 17.1339C21.1183 16.8995 21.25 16.5815 21.25 16.25V13.75H23.75C24.0815 13.75 24.3995 13.6183 24.6339 13.3839C24.8683 13.1495 25 12.8315 25 12.5C25 12.1685 24.8683 11.8505 24.6339 11.6161C24.3995 11.3817 24.0815 11.25 23.75 11.25H21.25V8.75C21.25 8.41848 21.1183 8.10054 20.8839 7.86612C20.6495 7.6317 20.3315 7.5 20 7.5Z" fill="black"/>
</svg>
