<svg width="279" height="205" viewBox="0 0 279 205" fill="none" xmlns="http://www.w3.org/2000/svg">
<g opacity="0.5">
<path opacity="0.5" d="M250.297 200.959C256.252 206.003 22.6532 206.003 28.6105 200.959C22.6532 195.917 256.252 195.917 250.297 200.959Z" fill="#FFD86C"/>
<g opacity="0.3">
<path opacity="0.8" d="M241.403 99.6035C239.129 232.415 39.8022 232.397 37.5471 99.5982C39.8209 -33.211 239.147 -33.1895 241.403 99.6035Z" fill="#FFD86C"/>
<path opacity="0.6" d="M119.442 141.278C118.108 219.095 1.32084 219.084 0 141.278C1.33158 63.4633 118.122 63.4767 119.442 141.278Z" fill="#FFD86C"/>
<path opacity="0.6" d="M159.468 141.278C160.799 219.095 277.589 219.081 278.91 141.278C277.578 63.4633 160.788 63.4767 159.468 141.278Z" fill="#FFD86C"/>
<path opacity="0.5" d="M197.075 81.0042C197.988 134.318 278.003 134.31 278.908 81.0042C277.995 27.6899 197.98 27.6979 197.075 81.0042Z" fill="#FFD86C"/>
<path opacity="0.5" d="M81.8332 81.0042C80.9204 134.318 0.904724 134.31 0 81.0042C0.912778 27.6899 80.9285 27.6979 81.8332 81.0042Z" fill="#FFD86C"/>
</g>
</g>
<g opacity="0.8">
<g opacity="0.8">
<path d="M223.421 171.205C224.626 162.899 231.185 156.813 239.118 154.695C253.953 150.402 255.336 139.422 257.314 144.912C259.293 150.402 255.14 156.332 258.7 160.622C262.259 164.913 259.43 172.95 253.725 174.717C248.02 176.481 227.595 189.909 227.595 200.645H212.22C211.434 200.645 211.434 194.774 211.466 194.334C211.775 184.999 221.217 179.812 223.423 171.205H223.421Z" fill="#C6CC40"/>
<g opacity="0.8">
<path d="M234.529 178.172C234.207 172.889 236.674 167.595 240.648 164.126C242.913 162.139 245.44 160.692 247.636 158.762C249.362 157.345 251.308 155.981 252.288 153.908C251.499 156.461 249.212 158.142 247.359 159.922C240.938 164.781 235.088 169.455 234.529 178.172Z" fill="white"/>
</g>
</g>
<path d="M278.012 180.811C275.877 187.442 270.065 191.131 263.448 192.584C244.628 196.715 235.817 199.322 232.891 200.256C231.527 201.013 216.963 200.506 215.186 200.643C220.284 188.855 219.57 168.54 245.514 170.28C262.919 173.539 269.512 160.881 273.732 157.275C274.626 156.51 278.031 153.27 278.562 155.852C276.782 164.18 280.431 172.5 278.012 180.811Z" fill="#93B730"/>
<path d="M271.558 170.403C268.197 183.067 252.535 183.298 241.834 184.283C235.264 185.059 228.507 188.97 226.856 195.76C227.72 188.584 234.711 184.017 241.42 183.056C252.03 181.681 266.964 182.32 271.558 170.403Z" fill="#93B730"/>
<path opacity="0.8" d="M271.558 170.403C268.197 183.067 252.535 183.298 241.834 184.283C235.264 185.059 228.507 188.97 226.856 195.76C227.72 188.584 234.711 184.017 241.42 183.056C252.03 181.681 266.964 182.32 271.558 170.403Z" fill="white"/>
<g opacity="0.8">
<path d="M55.4895 171.205C54.2841 162.899 47.7256 156.813 39.7924 154.695C24.9571 150.402 23.5745 139.422 21.596 144.912C19.6174 150.402 23.7705 156.332 20.2107 160.622C16.6508 164.913 19.4805 172.95 25.1853 174.717C30.8902 176.481 51.3149 189.909 51.3149 200.645H66.6899C67.4765 200.645 67.4765 194.774 67.4443 194.334C67.1355 184.999 57.6936 179.812 55.4869 171.205H55.4895Z" fill="#C6CC40"/>
<g opacity="0.8">
<path d="M44.3805 178.172C44.7027 172.889 42.2355 167.595 38.2622 164.126C35.9964 162.139 33.4702 160.692 31.2741 158.762C29.5479 157.345 27.6015 155.981 26.6216 153.908C27.4109 156.461 29.6982 158.142 31.5506 159.922C37.9723 164.781 43.8221 169.455 44.3805 178.172Z" fill="white"/>
</g>
</g>
<path d="M0.897788 180.811C3.03208 187.442 8.84433 191.131 15.462 192.584C34.2813 196.715 43.0923 199.322 46.0185 200.256C47.3823 201.013 61.9465 200.506 63.7238 200.643C58.6256 188.855 59.3397 168.54 33.3954 170.28C15.9908 173.539 9.39736 160.881 5.17711 157.275C4.28312 156.51 0.878996 153.27 0.347437 155.852C2.12735 164.18 -1.52107 172.5 0.897788 180.811Z" fill="#93B730"/>
<path d="M7.35181 170.403C10.713 183.067 26.3752 183.298 37.0762 184.283C43.6455 185.059 50.4027 188.97 52.0538 195.76C51.1893 188.584 44.1985 184.017 37.4896 183.056C26.8799 181.681 11.9452 182.32 7.35181 170.403Z" fill="#93B730"/>
<path opacity="0.8" d="M7.35181 170.403C10.713 183.067 26.3752 183.298 37.0762 184.283C43.6455 185.059 50.4027 188.97 52.0538 195.76C51.1893 188.584 44.1985 184.017 37.4896 183.056C26.8799 181.681 11.9452 182.32 7.35181 170.403Z" fill="white"/>
</g>
<g opacity="0.8">
<g opacity="0.5">
<g style="mix-blend-mode:multiply" opacity="0.8">
<path d="M35.4663 128.198C34.3549 127.871 35.6113 126.928 36.057 126.295C40.7363 120.78 47.0586 113.596 52.1729 107.682C50.3124 109.559 48.256 111.639 46.2962 113.626C32.8139 127.283 32.6931 127.285 32.3334 127.285C31.7427 127.245 31.8099 126.606 32.1589 126.297C38.0543 119.36 46.1834 110.485 52.3984 103.328C46.9378 108.828 39.3993 116.574 34.2153 121.76C28.9131 126.81 29.5494 126.797 28.5534 126.509C28.2017 126.16 28.4567 125.857 29.5306 124.579C35.4449 117.693 43.9122 108.512 50.307 101.268C45.1015 106.385 24.8405 127.264 26.4191 124.966C26.301 124.966 26.1802 124.92 26.0969 124.837C25.7479 124.491 25.9627 124.238 27.1493 122.837C32.9589 116.12 41.0397 107.346 47.3539 100.262C45.2868 102.348 42.9941 104.673 40.8061 106.893C25.5036 122.415 24.6365 123.156 24.2016 123.159C23.3049 122.842 23.6566 122.563 24.9587 120.998C30.8944 114.144 39.1711 105.148 45.6035 97.9314C42.5431 100.992 38.8893 104.67 35.6033 107.98C22.4566 121.221 22.4163 121.221 22.0941 121.223C21.976 121.231 21.8579 121.178 21.7747 121.094C21.3102 120.233 22.7304 119.379 23.3613 118.383C28.2124 112.702 34.6395 105.626 40.1994 99.424C35.7939 103.703 22.9291 117.357 20.3867 118.858C20.2686 118.858 20.1424 118.807 20.0592 118.724C19.6377 118.023 20.5424 117.612 20.9746 116.928C26.9426 110.066 35.4771 100.758 41.8128 93.5984C39.3134 96.1139 36.355 99.1261 33.5602 101.969C19.9384 115.827 19.2108 116.445 18.7867 116.447C17.9034 116.149 18.2551 115.833 19.4525 114.38C24.8352 108.098 32.2824 99.9341 38.159 93.2843C35.8529 95.5931 33.2273 98.2374 30.7333 100.748C17.6403 113.929 17.5893 113.929 17.2672 113.929C16.5289 113.706 16.6739 113.416 17.5303 112.439C23.1036 105.999 30.7414 97.5018 36.4516 90.8842C33.6381 93.5581 16.3651 111.406 17.0041 110.192C16.8859 110.192 16.7705 110.147 16.6873 110.063C16.2577 109.387 17.2188 108.893 17.6457 108.184C21.7129 103.279 27.0929 97.0589 31.6541 91.7057C30.1776 93.2011 28.6071 94.8011 27.152 96.2803C16.6416 106.702 17.4363 106.681 16.3275 106.396C15.7772 105.647 18.0162 103.797 18.8269 102.517C21.3022 99.4509 24.9452 95.0266 27.7211 91.6252C13.4228 106.584 15.2376 103.081 22.4217 92.852C21.0391 94.2427 21.0069 94.2427 20.8189 94.2427C20.3894 94.2561 20.2015 93.6548 20.5773 93.4319C20.7894 93.244 21.9599 92.0655 22.8217 91.1983C24.2034 89.8041 24.9658 89.107 25.109 89.107C26.2741 89.4613 24.7842 90.699 24.3627 91.5634C23.0499 93.5232 21.0579 96.4226 19.6028 98.5811C21.6673 96.6428 33.3106 84.4223 32.6287 85.6921C33.3831 85.9149 33.1924 86.2317 32.3709 87.2707C29.042 91.4883 24.5586 96.8602 20.9102 101.36C22.6257 99.6281 24.6231 97.5958 26.5157 95.6709C37.0959 84.9001 37.2033 84.9001 37.5604 84.8975C38.1322 84.9324 38.0946 85.5552 37.7483 85.8559C33.4797 91.0265 27.8634 97.4589 23.1814 102.989C55.2656 70.0809 38.3094 90.7151 25.0553 105.207C26.6956 103.561 28.4299 101.813 30.1024 100.13C44.2934 85.8451 44.3713 85.8451 44.6988 85.8451C45.5794 86.1512 45.2143 86.4653 44.0035 87.9418C38.4973 94.3716 30.8273 102.777 24.8432 109.553C27.3077 107.07 30.1937 104.136 32.924 101.357C46.519 87.5284 47.2439 86.9109 47.6653 86.9083C48.5754 87.2519 48.2533 87.4559 46.7633 89.2788C40.9994 95.9877 33.0475 104.662 26.6849 111.8C30.1856 108.41 51.5205 86.4519 49.9688 88.6291C50.0869 88.6291 50.205 88.6747 50.2882 88.758C50.699 89.3728 49.9473 89.6842 49.5983 90.2345C43.2384 97.4535 34.771 106.71 28.148 114.227C30.2286 112.141 32.6126 109.738 34.9697 107.365C52.1755 90.3204 51.3755 90.3392 52.5111 90.6265C52.8628 90.9728 52.64 91.2359 51.4077 92.6856C45.3807 99.6496 36.9322 108.831 30.4219 116.139C33.3938 113.159 36.9671 109.534 40.1725 106.281C53.7165 92.5406 53.8159 92.5406 54.1783 92.5379C54.2991 92.5379 54.4172 92.5863 54.5004 92.6695C54.8548 93.0212 54.6025 93.3165 53.3944 94.7447C47.6922 101.352 39.8799 109.835 33.5978 116.874C35.5361 114.922 37.649 112.786 39.6705 110.74C54.6803 95.5555 55.4642 94.879 55.8669 94.8763C56.7716 95.1877 56.3797 95.5367 55.0991 97.1153C49.2547 103.961 41.0289 112.882 34.6609 120.064C40.2557 114.539 58.8308 95.1796 57.7354 97.1314C57.8562 97.1314 57.9797 97.1797 58.063 97.2629C58.4066 97.6012 58.2428 97.8428 56.8065 99.5663C51.7836 105.505 45.1606 112.837 39.4477 119.298C46.0197 112.769 59.0751 99.1502 58.5301 100.42C59.1476 100.495 59.0616 101.064 58.6536 101.467C53.8159 107.263 47.5472 114.316 42.2021 120.515C43.3807 119.323 44.6049 118.082 45.7888 116.882C58.616 103.781 59.8429 102.667 59.1556 104.981C54.9192 110.211 49.2627 116.753 44.6263 122.313C47.1606 119.873 60.3073 106.211 59.3757 107.693C59.4939 107.693 59.612 107.738 59.6952 107.822C60.1033 108.42 59.3462 108.807 59.016 109.392C56.2481 112.939 52.648 117.371 49.4936 121.304C58.2455 112.461 59.0348 111.526 58.7851 113.371C57.9958 113.932 53.5098 118.528 49.9607 122.09C46.4761 125.607 44.6514 127.365 44.4867 127.363C43.7968 127.154 43.8827 126.904 44.6451 125.962C47.609 122.195 51.5447 117.36 54.7823 113.306C53.9877 114.112 53.1528 114.957 52.3232 115.795C40.2557 128.024 40.1242 128.024 39.7671 128.026C39.6544 128.029 39.5255 127.978 39.4423 127.895C39.2096 127.664 40.2575 126.155 42.586 123.368C45.7485 119.58 50.3715 114.128 53.8642 109.977C51.5688 112.278 48.86 115.025 46.4197 117.5C35.861 128.203 35.8019 128.203 35.469 128.206L35.4663 128.198ZM52.1138 118.888C52.1702 118.944 52.2346 118.979 52.2964 118.998C52.2292 118.979 52.1648 118.941 52.1138 118.888ZM14.7731 98.8844C14.8859 98.8844 14.9986 98.9274 15.0872 99.0133C14.9342 98.863 14.7167 98.8549 14.5718 98.9328C14.6362 98.9005 14.7033 98.8844 14.7731 98.8844Z" fill="#DDA528"/>
</g>
<g style="mix-blend-mode:multiply" opacity="0.8">
<path d="M148.815 50.4048C147.999 50.1659 148.92 49.4732 149.248 49.0088C152.681 44.963 157.32 39.6904 161.073 35.3493C159.707 36.7266 158.201 38.2541 156.762 39.7119C146.869 49.7336 146.78 49.7336 146.515 49.7363C146.08 49.7068 146.131 49.237 146.386 49.0115C150.713 43.9214 156.679 37.4085 161.237 32.1573C156.778 36.4393 147.833 46.2866 143.98 49.2692C143.328 49.0517 143.605 48.7887 144.456 47.7551C148.794 42.7026 155.009 35.9641 159.702 30.6512C155.881 34.407 141.014 49.7283 142.174 48.0396C142.085 48.0396 141.999 48.0047 141.937 47.943C141.502 47.2718 144.034 45.1751 144.963 43.8999C148.483 39.9374 153.747 34.1466 157.538 29.9103C128.954 59.24 141.215 44.4637 156.252 28.2001C154.005 30.4445 151.326 33.1452 148.915 35.5748C139.269 45.2906 139.239 45.2906 139.003 45.2933C138.917 45.3013 138.831 45.2583 138.769 45.1993C138.45 44.5254 139.454 43.967 139.935 43.21C143.494 39.0407 148.211 33.8486 152.289 29.2982C149.057 32.4392 139.615 42.4583 137.749 43.559C136.922 43.3093 137.846 42.6113 138.182 42.1442C142.56 37.1078 148.823 30.2807 153.473 25.0242C128.686 50.6223 133.398 43.8382 150.794 24.7933C124.949 51.1162 136.195 37.991 149.54 23.0349C147.476 24.9974 134.802 38.093 135.271 37.2017C135.185 37.2017 135.1 37.1668 135.038 37.1078C134.721 36.6111 135.427 36.2487 135.741 35.7279C138.724 32.1305 142.673 27.5639 146.021 23.6363C130.289 40.0045 132.624 36.0742 143.135 23.5772C132.67 34.5359 133.988 31.9506 139.247 24.4765C138.233 25.4967 138.208 25.4967 138.071 25.4967C137.755 25.5074 137.62 25.0645 137.894 24.9007C138.227 24.6698 141.21 21.4107 141.218 21.7275C142.611 21.6818 137.556 27.7276 137.177 28.678C138.692 27.2551 147.237 18.2884 146.735 19.22C147.288 19.3838 147.148 19.6147 146.547 20.3771C144.104 23.4725 140.812 27.4135 138.136 30.7156C139.395 29.4458 140.861 27.9532 142.249 26.541C150.013 18.6374 150.093 18.6375 150.354 18.6348C150.773 18.6616 150.746 19.118 150.493 19.3381C147.36 23.1315 143.239 27.8511 139.803 31.9103C163.219 7.88009 150.907 22.9195 141.178 33.5372C167.745 6.44649 152.367 24.3369 141.022 36.7266C142.829 34.9064 144.947 32.7506 146.952 30.713C156.928 20.565 157.46 20.114 157.769 20.1113C157.857 20.1113 157.946 20.1462 158.008 20.208C158.263 20.4603 158.139 20.6268 157.106 21.851C152.875 26.7746 147.041 33.1399 142.372 38.3776C145.621 35.497 159.908 19.8912 159.691 21.4697C160.043 22.1194 158.332 23.3087 157.694 24.243C153.538 28.8981 147.747 35.2849 143.446 40.1575C172.835 10.1674 160.558 24.7826 145.113 41.5616C147.296 39.3736 149.916 36.7158 152.268 34.3292C162.206 24.2457 162.279 24.2457 162.545 24.2457C162.633 24.2457 162.719 24.2806 162.781 24.3423C163.189 25.0752 160.593 27.2176 159.613 28.5626C156.209 32.3962 151.173 37.94 147.444 42.1012C175.86 12.9836 162.123 29.3706 148.222 44.4422C170.126 21.7221 170.95 22.6483 151.734 43.8811C173.842 21.1395 166.778 30.1358 153.755 44.7724C174.51 23.4081 165.431 34.6406 155.535 46.0906C157.398 44.2946 167.036 34.2755 166.36 35.3601C167.444 35.6312 165.143 37.5642 164.652 38.4394C163.111 40.375 160.891 43.1321 159.106 45.3496C165.745 38.8474 165.149 38.8635 165.925 39.0703C166.287 39.6904 161.852 43.1939 159.449 45.9268C156.893 48.5059 155.555 49.7954 155.433 49.7954C155.347 49.7954 155.261 49.7605 155.199 49.7014C154.985 49.4893 155.071 49.3793 155.546 48.7672C157.72 46.0047 160.609 42.4556 162.985 39.481C156.375 46.1094 152.018 50.7243 151.97 50.2813C151.887 50.2813 151.793 50.2464 151.731 50.1847C151.561 50.0164 152.33 48.9095 154.037 46.8638C156.357 44.0852 159.75 40.085 162.314 37.038C160.631 38.7266 158.641 40.7428 156.851 42.5576C149.103 50.4102 149.06 50.4129 148.815 50.4129V50.4048ZM154.265 33.6553C154.306 33.6956 154.354 33.7224 154.399 33.7359C154.351 33.7224 154.303 33.6956 154.265 33.6553ZM126.863 18.9784C126.946 18.9784 127.03 19.0106 127.094 19.0724C126.981 18.9623 126.823 18.9569 126.715 19.0133C126.761 18.9891 126.812 18.9784 126.863 18.9784Z" fill="#DDA528"/>
</g>
<g style="mix-blend-mode:multiply" opacity="0.8">
<path d="M243.058 120.02C242.515 119.862 243.127 119.4 243.345 119.091C245.627 116.401 248.709 112.898 251.205 110.014C233.522 128.104 243.729 116.259 251.315 107.891C248.354 110.737 242.405 117.279 239.847 119.263C239.412 119.121 239.594 118.944 240.161 118.256C243.044 114.898 247.176 110.42 250.293 106.887C232.877 124.764 236.835 119.462 248.854 106.396C230.021 125.733 238.024 116.028 248 105.257C246.507 106.75 244.725 108.543 243.122 110.159C236.711 116.619 236.69 116.619 236.534 116.619C236.185 116.562 236.298 116.256 236.545 115.977C239.114 112.857 242.408 109.308 245.364 105.985C243.216 108.071 236.939 114.731 235.702 115.462C235.151 115.298 235.763 114.831 235.989 114.522C238.899 111.174 243.063 106.637 246.153 103.144C229.811 120.039 232.872 115.561 244.373 102.991C227.288 120.399 234.676 111.746 243.541 101.824C242.169 103.128 233.744 111.832 234.056 111.241C233.503 111.075 234.15 110.592 234.367 110.261C236.351 107.869 238.974 104.836 241.2 102.224C230.807 113.051 232.324 110.439 239.283 102.186C232.354 109.453 233.216 107.722 236.698 102.785C235.881 103.531 236.112 103.534 235.761 103.399C235.557 102.965 236.41 102.61 236.891 101.977C237.564 101.297 237.936 100.956 238.008 100.956C238.856 101.112 235.624 104.83 235.323 105.577C246.027 94.4999 241.64 100.146 235.959 106.932C248.899 93.5522 244.531 99.2356 237.068 107.727C252.534 91.8448 244.448 101.762 237.981 108.809C255.461 90.975 245.431 102.699 237.876 110.927C255.895 92.3388 249.27 100.658 238.775 112.023C240.483 110.369 250.889 99.6598 250.132 100.723C250.628 100.852 250.153 101.257 249.952 101.507C246.848 105.026 242.719 109.542 239.49 113.209C258.875 93.4153 250.846 103.026 240.598 114.141C257.649 96.5697 254.223 101.391 242.15 114.498C260.873 95.3026 251.901 106.063 242.668 116.052C257.157 101.007 257.71 101.652 245.001 115.679C259.568 100.68 254.972 106.594 246.343 116.272C260.049 102.156 254.097 109.558 247.527 117.15C248.765 115.958 255.173 109.298 254.722 110.02C255.745 110.092 250.438 115.7 249.903 116.659C254.317 112.337 253.92 112.347 254.435 112.484C254.564 113.027 251.799 115.139 250.132 117.04C248.433 118.755 247.544 119.612 247.463 119.612C246.416 119.591 252.003 113.663 252.483 112.755C239.299 126.316 246.454 117.558 252.035 111.131C250.915 112.253 249.595 113.593 248.405 114.798C243.256 120.017 243.227 120.017 243.066 120.02H243.058ZM267.246 117.097C267.273 117.123 267.305 117.139 267.335 117.15C267.302 117.139 267.27 117.123 267.246 117.097ZM249.034 107.341C249.09 107.341 249.144 107.362 249.187 107.402C249.111 107.33 249.007 107.324 248.937 107.362C248.966 107.346 249.001 107.338 249.036 107.338L249.034 107.341Z" fill="#DDA528"/>
</g>
</g>
<g style="mix-blend-mode:multiply" opacity="0.5">
<path opacity="0.5" d="M7.31891 85.0265C22.9167 75.9121 39.3843 68.2233 56.3995 62.1426C40.8071 71.2677 24.3288 78.935 7.31891 85.0265Z" fill="#DDA528"/>
<path opacity="0.5" d="M89.7239 39.5216C105.593 30.8958 121.991 23.2419 138.804 16.6377C122.938 25.2715 106.535 32.9093 89.7239 39.5216Z" fill="#DDA528"/>
<path opacity="0.5" d="M238.192 127.634C248.469 121.986 259.116 117.014 270.051 112.78C259.777 118.434 249.124 123.393 238.192 127.634Z" fill="#DDA528"/>
</g>
</g>
<path d="M223.56 114.185V190.49C219.772 188.353 157.752 153.348 155.961 152.339L223.56 114.187V114.185Z" fill="url(#paint0_linear_5005_28729)"/>
<path d="M122.946 152.339C121.445 153.187 58.845 188.517 55.3469 190.49V114.185L122.946 152.336V152.339Z" fill="url(#paint1_linear_5005_28729)"/>
<path d="M122.946 152.338L122.965 152.349C121.416 153.227 58.8772 188.519 55.3469 190.513V190.492C59.1323 188.355 121.156 153.35 122.946 152.341V152.338Z" fill="url(#paint2_linear_5005_28729)"/>
<path d="M223.561 190.49V190.512C219.744 188.356 157.766 153.378 155.943 152.347L155.962 152.336C157.463 153.184 220.066 188.514 223.561 190.487V190.49Z" fill="url(#paint3_linear_5005_28729)"/>
<g style="mix-blend-mode:multiply" opacity="0.2">
<path d="M223.561 114.185V121.017L162.77 156.18L155.961 152.339L223.561 114.185Z" fill="url(#paint4_linear_5005_28729)"/>
<path d="M122.947 152.339L116.138 156.18L55.3473 121.017V114.185L122.947 152.339Z" fill="url(#paint5_linear_5005_28729)"/>
</g>
<path d="M223.561 88.4224V114.184C217.403 117.629 163.578 148.062 155.962 152.336C155.948 152.392 144.563 145.901 144.547 145.914C137.91 141.404 128.667 149.635 122.965 152.346C115.123 147.93 61.8411 117.843 55.3469 114.184V88.4224C63.3552 83.8827 128.369 47.2239 134.361 43.8252C137.518 42.0453 141.39 42.0453 144.547 43.8252C150.279 47.0816 215.913 84.0894 223.561 88.4224Z" fill="url(#paint6_linear_5005_28729)"/>
<path d="M223.561 190.511C223.878 195.319 223.376 200.334 217.384 200.643H61.5218C55.6048 200.353 54.9927 195.349 55.3444 190.511C59.1619 188.356 121.14 153.377 122.962 152.346C140.52 142.094 138.415 142.121 155.943 152.346C157.492 153.224 220.031 188.517 223.561 190.511Z" fill="url(#paint7_linear_5005_28729)"/>
<path style="mix-blend-mode:multiply" opacity="0.3" d="M122.947 152.338L122.966 152.349C122.966 152.349 116.171 156.182 116.157 156.19L116.139 156.18L122.947 152.338Z" fill="url(#paint8_linear_5005_28729)"/>
<path style="mix-blend-mode:multiply" opacity="0.3" d="M162.77 156.18L162.751 156.19C162.733 156.177 155.959 152.362 155.943 152.349L155.962 152.338L162.77 156.18Z" fill="url(#paint9_linear_5005_28729)"/>
<path d="M212.457 95.7916V120.453C193.952 130.891 174.413 141.93 155.943 152.349C137.486 141.933 141.389 141.965 122.967 152.349C104.507 141.938 84.9418 130.885 66.4527 120.453V95.7916C66.4527 93.5365 68.2944 91.7109 70.5709 91.7109H208.339C210.613 91.7109 212.457 93.5365 212.457 95.7916Z" fill="#FFE7BD"/>
<defs>
<linearGradient id="paint0_linear_5005_28729" x1="189.761" y1="159.504" x2="189.761" y2="110.574" gradientUnits="userSpaceOnUse">
<stop stop-color="#FFCF5C"/>
<stop offset="1" stop-color="#FFB300"/>
</linearGradient>
<linearGradient id="paint1_linear_5005_28729" x1="89.1465" y1="0.00143039" x2="89.1465" y2="0.00143039" gradientUnits="userSpaceOnUse">
<stop stop-color="#FFCF5C"/>
<stop offset="1" stop-color="#FFB300"/>
</linearGradient>
<linearGradient id="paint2_linear_5005_28729" x1="89.1573" y1="207.464" x2="89.1573" y2="158.343" gradientUnits="userSpaceOnUse">
<stop stop-color="#FFCF5C"/>
<stop offset="1" stop-color="#FFB52E"/>
</linearGradient>
<linearGradient id="paint3_linear_5005_28729" x1="189.754" y1="0.00133842" x2="189.754" y2="0.00133842" gradientUnits="userSpaceOnUse">
<stop stop-color="#FFCF5C"/>
<stop offset="1" stop-color="#FFB52E"/>
</linearGradient>
<linearGradient id="paint4_linear_5005_28729" x1="-8.60667e-05" y1="174.831" x2="0.268378" y2="120.791" gradientUnits="userSpaceOnUse">
<stop stop-color="#FFCF5C"/>
<stop offset="1" stop-color="#FFB300"/>
</linearGradient>
<linearGradient id="paint5_linear_5005_28729" x1="89.1469" y1="174.831" x2="89.1469" y2="120.791" gradientUnits="userSpaceOnUse">
<stop stop-color="#FFCF5C"/>
<stop offset="1" stop-color="#FFB300"/>
</linearGradient>
<linearGradient id="paint6_linear_5005_28729" x1="139.693" y1="91.652" x2="135.725" y2="252.11" gradientUnits="userSpaceOnUse">
<stop stop-color="#FFCF5C"/>
<stop offset="1" stop-color="#FFB300"/>
</linearGradient>
<linearGradient id="paint7_linear_5005_28729" x1="138.106" y1="126.652" x2="139.427" y2="191.365" gradientUnits="userSpaceOnUse">
<stop stop-color="#FFCF5C"/>
<stop offset="1" stop-color="#FFB300"/>
</linearGradient>
<linearGradient id="paint8_linear_5005_28729" x1="119.551" y1="152.338" x2="119.551" y2="156.19" gradientUnits="userSpaceOnUse">
<stop stop-color="#FFCF5C"/>
<stop offset="1" stop-color="#FFB300"/>
</linearGradient>
<linearGradient id="paint9_linear_5005_28729" x1="159.358" y1="152.338" x2="159.358" y2="156.19" gradientUnits="userSpaceOnUse">
<stop stop-color="#FFCF5C"/>
<stop offset="1" stop-color="#FFB300"/>
</linearGradient>
</defs>
</svg>
