<svg width="18" height="17" viewBox="0 0 18 17" fill="none" xmlns="http://www.w3.org/2000/svg">
<path fill-rule="evenodd" clip-rule="evenodd" d="M13.3927 16.1191C13.2592 16.1191 13.1291 16.0898 13.0115 16.0278L8.75589 13.7911L4.50029 16.0278C4.22003 16.1743 3.87805 16.1517 3.62198 15.9625C3.36424 15.7725 3.23663 15.4552 3.29168 15.138L4.12578 10.426L0.68927 7.07762C0.469901 6.85914 0.393163 6.53853 0.480744 6.24052C0.580837 5.93666 0.842746 5.71734 1.15887 5.67214L5.9116 4.97819L8.00687 0.682221C8.1445 0.394261 8.43727 0.210938 8.75589 0.210938C9.07536 0.210938 9.36813 0.394261 9.50492 0.682221L11.6269 4.96898L16.3804 5.66544C16.6932 5.70729 16.9568 5.92996 17.0552 6.23383C17.1461 6.52848 17.0644 6.85244 16.8467 7.07092L13.4094 10.4193L14.2435 15.1313C14.3052 15.4519 14.1742 15.7792 13.9107 15.9684C13.7605 16.073 13.5787 16.1291 13.3927 16.1191Z" fill="#FFA93F"/>
</svg>
