<svg width="20" height="19" viewBox="0 0 20 19" fill="none" xmlns="http://www.w3.org/2000/svg">
<path fill-rule="evenodd" clip-rule="evenodd" d="M14.0707 11.5072C13.9714 11.6104 13.923 11.755 13.9467 11.8961L14.8326 17.1191L10.1907 14.6558C10.0615 14.587 9.91038 14.587 9.78032 14.6558L5.13757 17.1191L6.02429 11.8961C6.04889 11.755 5.99968 11.6104 5.89774 11.5072L2.13732 7.80648L7.33195 7.04535C7.47696 7.02507 7.59999 6.93158 7.66414 6.80458L9.98596 2.05699L12.306 6.80105C12.371 6.93158 12.495 7.02507 12.6391 7.04535L17.8328 7.80648L14.0707 11.5072ZM18.702 7.93438C18.774 7.45195 18.441 7.00391 17.9603 6.93512L12.9924 6.20486L10.7751 1.66807C10.6934 1.5296 10.58 1.4123 10.4429 1.3338C10.0062 1.08156 9.44725 1.22973 9.19679 1.66807L6.97867 6.20486L2.01165 6.93512C1.82182 6.96246 1.64782 7.05242 1.50985 7.19001C1.17063 7.53838 1.17766 8.09666 1.52391 8.43709L5.11736 11.9755L4.27019 16.9709C4.26228 17.0194 4.25876 17.0679 4.25876 17.1156C4.25612 17.605 4.65159 18.001 5.13493 18.001C5.27994 18.001 5.42055 17.9667 5.54622 17.8979L9.98596 15.5448L14.4204 17.8979C14.5927 17.9913 14.7913 18.0222 14.9837 17.9878C15.4609 17.9084 15.7799 17.4534 15.7009 16.9709L14.8537 11.9755L18.4506 8.43709C18.5851 8.30304 18.6739 8.12753 18.702 7.93438Z" fill="#FFA93F"/>
<path d="M14.0707 11.5072L13.6499 11.0794L13.644 11.0852L13.6383 11.0911L14.0707 11.5072ZM13.9467 11.8961L13.3551 11.9956L13.3552 11.9965L13.9467 11.8961ZM14.8326 17.1191L14.5513 17.6491L15.6279 18.2204L15.4241 17.0187L14.8326 17.1191ZM10.1907 14.6558L9.9087 15.1854L9.90947 15.1858L10.1907 14.6558ZM9.78032 14.6558L9.49979 14.1254L9.4991 14.1257L9.78032 14.6558ZM5.13757 17.1191L4.54603 17.0187L4.34201 18.2204L5.41878 17.6491L5.13757 17.1191ZM6.02429 11.8961L5.4332 11.793L5.43275 11.7957L6.02429 11.8961ZM5.89774 11.5072L6.32462 11.0855L6.31859 11.0795L5.89774 11.5072ZM2.13732 7.80648L2.05033 7.21282L0.856428 7.38775L1.71646 8.23413L2.13732 7.80648ZM7.33195 7.04535L7.24883 6.45112L7.24497 6.45169L7.33195 7.04535ZM7.66414 6.80458L8.19974 7.07512L8.20314 7.06817L7.66414 6.80458ZM9.98596 2.05699L10.525 1.7934L9.98596 0.691265L9.44696 1.7934L9.98596 2.05699ZM12.306 6.80105L11.767 7.06465L11.769 7.06861L12.306 6.80105ZM12.6391 7.04535L12.7261 6.45168L12.7227 6.45121L12.6391 7.04535ZM17.8328 7.80648L18.2536 8.23423L19.1141 7.38783L17.9198 7.21282L17.8328 7.80648ZM17.9603 6.93512L17.873 7.52874L17.8753 7.52907L17.9603 6.93512ZM12.9924 6.20486L12.4533 6.46831L12.5922 6.75248L12.9051 6.79848L12.9924 6.20486ZM10.7751 1.66807L11.3142 1.40461L11.3038 1.38341L11.2918 1.36308L10.7751 1.66807ZM10.4429 1.3338L10.1429 1.85339L10.1448 1.8545L10.4429 1.3338ZM9.19679 1.66807L8.67583 1.3704L8.66625 1.38717L8.65776 1.40453L9.19679 1.66807ZM6.97867 6.20486L7.06595 6.79848L7.37881 6.75248L7.5177 6.4684L6.97867 6.20486ZM2.01165 6.93512L2.09718 7.52899L2.09892 7.52874L2.01165 6.93512ZM1.50985 7.19001L1.08613 6.7651L1.07997 6.77143L1.50985 7.19001ZM1.52391 8.43709L1.94489 8.00957L1.94456 8.00925L1.52391 8.43709ZM5.11736 11.9755L5.70891 12.0758L5.76121 11.7674L5.53834 11.548L5.11736 11.9755ZM4.27019 16.9709L3.67862 16.8706L3.67801 16.8744L4.27019 16.9709ZM4.25876 17.1156L4.85876 17.1188V17.1156H4.25876ZM5.54622 17.8979L5.26521 17.3677L5.25811 17.3716L5.54622 17.8979ZM9.98596 15.5448L10.2672 15.0148L9.98612 14.8656L9.70498 15.0147L9.98596 15.5448ZM14.4204 17.8979L14.7067 17.3705L14.7017 17.3679L14.4204 17.8979ZM14.9837 17.9878L14.8853 17.3959L14.8782 17.3972L14.9837 17.9878ZM15.7009 16.9709L16.293 16.8738L16.2924 16.8706L15.7009 16.9709ZM14.8537 11.9755L14.4329 11.5478L14.2098 11.7673L14.2621 12.0758L14.8537 11.9755ZM18.4506 8.43709L18.8714 8.86484L18.8743 8.86199L18.4506 8.43709ZM18.702 7.93438L18.1086 7.84574L18.1082 7.84793L18.702 7.93438ZM13.6383 11.0911C13.4151 11.3231 13.298 11.6563 13.3551 11.9956L14.5384 11.7966C14.548 11.8537 14.5276 11.8976 14.503 11.9232L13.6383 11.0911ZM13.3552 11.9965L14.241 17.2194L15.4241 17.0187L14.5383 11.7958L13.3552 11.9965ZM15.1138 16.5891L10.472 14.1258L9.90947 15.1858L14.5513 17.6491L15.1138 16.5891ZM10.4727 14.1262C10.1667 13.9632 9.80475 13.9641 9.49979 14.1254L10.0608 15.1861C10.016 15.2099 9.95641 15.2108 9.9087 15.1854L10.4727 14.1262ZM9.4991 14.1257L4.85636 16.5891L5.41878 17.6491L10.0615 15.1858L9.4991 14.1257ZM5.7291 17.2195L6.61582 11.9965L5.43275 11.7957L4.54603 17.0187L5.7291 17.2195ZM6.61537 11.9992C6.67558 11.6539 6.55337 11.3171 6.32457 11.0855L5.4709 11.9289C5.44599 11.9036 5.42221 11.8561 5.43321 11.7931L6.61537 11.9992ZM6.31859 11.0795L2.55817 7.37883L1.71646 8.23413L5.47688 11.9348L6.31859 11.0795ZM2.2243 8.40014L7.41894 7.63901L7.24497 6.45169L2.05033 7.21282L2.2243 8.40014ZM7.41508 7.63956C7.76573 7.59051 8.05197 7.36755 8.1997 7.0751L7.12859 6.53405C7.14801 6.49561 7.18818 6.45962 7.24883 6.45114L7.41508 7.63956ZM8.20314 7.06817L10.525 2.32059L9.44696 1.7934L7.12515 6.54098L8.20314 7.06817ZM9.44696 2.32059L11.767 7.06464L12.845 6.53745L10.525 1.7934L9.44696 2.32059ZM11.769 7.06861C11.9171 7.36593 12.2047 7.59013 12.5555 7.63949L12.7227 6.45121C12.7852 6.46 12.825 6.49722 12.8431 6.53349L11.769 7.06861ZM12.5521 7.63901L17.7458 8.40014L17.9198 7.21282L12.7261 6.45169L12.5521 7.63901ZM17.4121 7.37874L13.6499 11.0794L14.4914 11.9349L18.2536 8.23423L17.4121 7.37874ZM19.2954 8.02302C19.4164 7.21304 18.857 6.45734 18.0453 6.34117L17.8753 7.52907C18.0249 7.55048 18.1317 7.69086 18.1086 7.84574L19.2954 8.02302ZM18.0475 6.3415L13.0796 5.61124L12.9051 6.79848L17.873 7.52874L18.0475 6.3415ZM13.5314 5.9414L11.3142 1.40461L10.2361 1.93152L12.4533 6.46831L13.5314 5.9414ZM11.2918 1.36308C11.1629 1.14469 10.9778 0.948662 10.7411 0.813111L10.1448 1.8545C10.1823 1.87593 10.2239 1.91451 10.2584 1.97305L11.2918 1.36308ZM10.743 0.814225C10.0211 0.397325 9.09281 0.640641 8.67583 1.3704L9.71774 1.96573C9.80169 1.81882 9.99123 1.7658 10.1429 1.85338L10.743 0.814225ZM8.65776 1.40453L6.43965 5.94132L7.5177 6.4684L9.73581 1.9316L8.65776 1.40453ZM6.8914 5.61124L1.92437 6.3415L2.09892 7.52874L7.06595 6.79848L6.8914 5.61124ZM1.92611 6.34125C1.60146 6.38801 1.31068 6.54127 1.08618 6.76515L1.93351 7.61487C1.98496 7.56357 2.04219 7.53691 2.09718 7.52899L1.92611 6.34125ZM1.07997 6.77143C0.509746 7.35704 0.522158 8.2936 1.10325 8.86494L1.94456 8.00925C1.83316 7.89972 1.83151 7.71972 1.93972 7.60858L1.07997 6.77143ZM1.10293 8.86462L4.69638 12.403L5.53834 11.548L1.94489 8.00957L1.10293 8.86462ZM4.5258 11.8752L3.67863 16.8706L4.86174 17.0712L5.70891 12.0758L4.5258 11.8752ZM3.67801 16.8744C3.66443 16.9576 3.65876 17.0386 3.65876 17.1156H4.85876C4.85876 17.0973 4.86012 17.0813 4.86237 17.0675L3.67801 16.8744ZM3.65877 17.1123C3.65435 17.9331 4.31764 18.601 5.13493 18.601V17.401C4.98554 17.401 4.8579 17.277 4.85875 17.1188L3.65877 17.1123ZM5.13493 18.601C5.37553 18.601 5.61595 18.5437 5.83432 18.4242L5.25811 17.3716C5.22514 17.3896 5.18434 17.401 5.13493 17.401V18.601ZM5.82719 18.428L10.2669 16.0749L9.70498 15.0147L5.26524 17.3677L5.82719 18.428ZM9.70472 16.0748L14.1392 18.4279L14.7017 17.3679L10.2672 15.0148L9.70472 16.0748ZM14.1342 18.4252C14.4283 18.5848 14.7653 18.6364 15.0893 18.5785L14.8782 17.3972C14.8173 17.4081 14.7571 17.3979 14.7066 17.3705L14.1342 18.4252ZM15.0822 18.5797C15.8951 18.4445 16.424 17.6733 16.2929 16.8738L15.1088 17.068C15.1359 17.2334 15.0268 17.3724 14.8853 17.396L15.0822 18.5797ZM16.2924 16.8706L15.4452 11.8752L14.2621 12.0758L15.1093 17.0712L16.2924 16.8706ZM15.2744 12.4032L18.8714 8.86483L18.0299 8.00936L14.4329 11.5478L15.2744 12.4032ZM18.8743 8.86199C19.101 8.6359 19.249 8.34143 19.2957 8.02082L18.1082 7.84793C18.0987 7.91363 18.0692 7.97018 18.027 8.0122L18.8743 8.86199Z" fill="#999999"/>
</svg>
