<svg width="52" height="52" viewBox="0 0 52 52" fill="none" xmlns="http://www.w3.org/2000/svg">
<circle cx="26" cy="26" r="26" fill="#D9D9D9"/>
<path d="M17.8571 19H29.4286C30.4515 19 31.4326 19.3951 32.156 20.0983C32.8793 20.8016 33.2857 21.7554 33.2857 22.75V30.25C33.2857 31.2446 32.8793 32.1984 32.156 32.9016C31.4326 33.6049 30.4515 34 29.4286 34H17.8571C16.8342 34 15.8531 33.6049 15.1297 32.9016C14.4064 32.1984 14 31.2446 14 30.25V22.75C14 21.7554 14.4064 20.8016 15.1297 20.0983C15.8531 19.3951 16.8342 19 17.8571 19ZM33.2857 24.625L37.9143 21.25C38.2008 21.0411 38.5415 20.9138 38.8982 20.8826C39.2549 20.8513 39.6136 20.9172 39.9339 21.0729C40.2543 21.2287 40.5237 21.468 40.712 21.7643C40.9003 22.0605 41 22.4018 41 22.75V30.25C41 30.5982 40.9003 30.9395 40.712 31.2357C40.5237 31.532 40.2543 31.7713 39.9339 31.9271C39.6136 32.0828 39.2549 32.1487 38.8982 32.1174C38.5415 32.0862 38.2008 31.9589 37.9143 31.75L33.2857 28.375V24.625Z" stroke="#363636" stroke-linecap="round" stroke-linejoin="round"/>
</svg>
