<svg width="14" height="15" viewBox="0 0 14 15" fill="none" xmlns="http://www.w3.org/2000/svg">
<path d="M11.5379 6.47082C11.3741 6.26711 11.1666 6.10282 10.9308 5.99014C10.695 5.87745 10.4368 5.81924 10.1755 5.81982H8.23681L8.59087 4.43662C8.66303 4.14964 8.63542 3.84664 8.51255 3.57742C8.38969 3.30821 8.17889 3.08881 7.91481 2.95528C7.62573 2.8091 7.29225 2.77698 6.98059 2.8653C6.66893 2.95363 6.40189 3.15594 6.2325 3.43205L4.75249 5.81968H4.29378C4.21346 5.62928 4.07882 5.46676 3.90669 5.35243C3.73455 5.23809 3.53254 5.17701 3.32589 5.1768H3.12422C2.84583 5.1771 2.57893 5.28782 2.38208 5.48467C2.18524 5.68152 2.07452 5.94842 2.07422 6.2268V11.1357C2.07452 11.4141 2.18524 11.681 2.38208 11.8778C2.57893 12.0747 2.84583 12.1854 3.12422 12.1857H3.32589C3.50655 12.1852 3.68401 12.138 3.84102 12.0487C3.99802 11.9593 4.12924 11.8308 4.22189 11.6757H9.66579C10.0652 11.674 10.4521 11.5364 10.7629 11.2857C11.0737 11.0349 11.29 10.6859 11.3762 10.2959L11.8861 7.93991C11.942 7.6846 11.9398 7.41998 11.8795 7.16567C11.8192 6.91135 11.7024 6.67387 11.5379 6.47082ZM3.32589 11.4853H3.12422C3.03143 11.4852 2.94247 11.4483 2.87685 11.3827C2.81124 11.3171 2.77433 11.2281 2.77422 11.1353V6.2268C2.77433 6.13401 2.81124 6.04505 2.87685 5.97944C2.94247 5.91383 3.03143 5.87691 3.12422 5.8768H3.32589C3.41868 5.87691 3.50764 5.91383 3.57325 5.97944C3.63887 6.04505 3.67578 6.13401 3.67589 6.2268V11.1357C3.67569 11.2284 3.63873 11.3173 3.57313 11.3828C3.50753 11.4484 3.41862 11.4852 3.32589 11.4853ZM11.2022 7.79151L10.6923 10.1472C10.6405 10.3813 10.5106 10.5907 10.324 10.7412C10.1374 10.8917 9.90522 10.9743 9.66551 10.9754H4.37589V6.51968H4.94737C5.00696 6.51973 5.06557 6.50452 5.11762 6.4755C5.16967 6.44649 5.21343 6.40463 5.24473 6.35392L6.82722 3.80074C6.90233 3.67956 7.01835 3.58928 7.15426 3.54622C7.29018 3.50317 7.43702 3.5102 7.5682 3.56603C7.69939 3.62186 7.80625 3.72281 7.86946 3.8506C7.93266 3.9784 7.94803 4.1246 7.91278 4.26274L7.44728 6.08274C7.43405 6.13443 7.43281 6.18845 7.44365 6.24069C7.4545 6.29293 7.47714 6.34199 7.50985 6.38414C7.54256 6.42628 7.58447 6.46039 7.63238 6.48386C7.6803 6.50733 7.73294 6.51953 7.78629 6.51954H10.1755C10.3322 6.51947 10.487 6.55451 10.6285 6.62207C10.7699 6.68963 10.8944 6.78801 10.9929 6.90998C11.0914 7.03195 11.1613 7.17442 11.1975 7.32694C11.2337 7.47946 11.2353 7.63829 11.2022 7.79151Z" fill="#838383"/>
</svg>
