<svg width="14" height="15" viewBox="0 0 14 15" fill="none" xmlns="http://www.w3.org/2000/svg">
<path d="M4.8125 9.25C6.38306 9.25 7.65625 7.97681 7.65625 6.40625C7.65625 4.83569 6.38306 3.5625 4.8125 3.5625C3.24194 3.5625 1.96875 4.83569 1.96875 6.40625C1.96875 7.97681 3.24194 9.25 4.8125 9.25Z" stroke="#838383" stroke-linecap="round" stroke-linejoin="round"/>
<path d="M8.49915 3.66908C8.89029 3.55888 9.3005 3.53377 9.70215 3.59546C10.1038 3.65714 10.4876 3.80418 10.8276 4.02667C11.1677 4.24916 11.4561 4.54194 11.6734 4.88529C11.8908 5.22863 12.0321 5.61457 12.0877 6.0171C12.1434 6.41964 12.1121 6.82943 11.996 7.21886C11.88 7.6083 11.6818 7.96835 11.4149 8.27475C11.148 8.58115 10.8185 8.8268 10.4486 8.99514C10.0788 9.16348 9.67713 9.2506 9.27077 9.25065C10.0431 9.25009 10.8042 9.43564 11.4896 9.79158C12.175 10.1475 12.7645 10.6634 13.2083 11.2955M0.874817 11.2958C1.31895 10.664 1.90857 10.1484 2.59389 9.79247C3.27921 9.43651 4.04012 9.25068 4.81236 9.25065C5.58461 9.25062 6.34553 9.4364 7.03088 9.7923C7.71622 10.1482 8.30588 10.6638 8.75006 11.2955" stroke="#838383" stroke-linecap="round" stroke-linejoin="round"/>
</svg>
